<?xml version="1.0" encoding="UTF-8"?>
<svg width="310px" height="230px" version="1.1" viewBox="0 0 310 230" xmlns="http://www.w3.org/2000/svg" xmlns:cc="http://creativecommons.org/ns#" xmlns:dc="http://purl.org/dc/elements/1.1/" xmlns:rdf="http://www.w3.org/1999/02/22-rdf-syntax-ns#">
 <title>logo 1</title>
 <desc>Created with Sketch.</desc>
 <rect id="Rectangle" width="310" height="230" fill="#111415"/>
 <g fill="#b9bbbb">
  <path d="m143.3 137.07 25.867-8.7024s3.0913 12.544-9.3996 15.798c-13.314 3.4686-16.468-7.0958-16.468-7.0958zm-2.9973-8.8021-0.0811 8.0499 30.792-10.494 0.10611-7.8991zm23.749-65.799-23.162 23.993 12.585 0.93719-8.6859 20.361 24.35-25.314-12.987-0.90942zm-23.831 63.458s-0.0378-7.8537-0.04-7.9193c-2e-3 -0.0656 1.6076-0.59685 3.7668-1.3401 22.659-7.8 22.564-7.5745 25.786-9.7053 2.3088-1.5267 5.5958-4.7594 6.9954-6.8797 5.4648-8.2791 6.1372-18.588 1.7782-27.259-1.5391-3.0616-2.8277-4.8184-5.3724-7.3245-3.6424-3.5871-8.1495-5.9857-13.391-7.1265-2.2283-0.48495-7.6599-0.49217-9.8844-0.01312-7.2596 1.5633-13.222 5.6342-17.128 11.694-3.9964 6.2007-5.2394 14.201-3.3412 21.507 2.5655 9.8742 10.763 17.572 20.87 19.598 0.9019 0.18075 1.659 0.40223 1.6825 0.49219 0.0235 0.09-4.1588 1.6494-5.7525 2.213-1.5937 0.56358-5.7951 2.0494-5.7951 2.0494l-1.2151-0.59637c-1.6846-0.8268-4.6823-2.8112-6.356-4.2076-8.4692-7.066-12.931-18.38-11.768-29.84 1.2427-12.239 8.4927-22.592 19.485-27.824 4.4991-2.1414 8.1055-2.9961 13.22-3.1333 3.6877-0.0989 6.2448 0.15093 9.1937 0.89825 13.657 3.461 23.949 15.134 25.866 29.338 1.3809 10.232-1.981 20.75-9.0254 28.239-3.1851 3.3858-7.5812 6.4136-11.692 8.0529-1.9889 0.79311-27.862 9.7126-27.869 9.5087z" stroke="#808080" stroke-width=".18694px"/>
  <path d="m96.902 158.02h6.48v28h-6.48z"/>
  <path d="m110.03 158.02h12.72q4.56 0 8.04 1.76 3.52 1.72 5.44 4.88 1.96 3.16 1.96 7.36t-1.96 7.36q-1.92 3.16-5.44 4.92-3.48 1.72-8.04 1.72h-12.72zm12.4 22.68q4.2 0 6.68-2.32 2.52-2.36 2.52-6.36t-2.52-6.32q-2.48-2.36-6.68-2.36h-5.92v17.36z"/>
  <path d="m153.85 169.42q3.68 0.6 5.64 2.76 1.96 2.12 1.96 5.28 0 2.44-1.28 4.52-1.28 2.04-3.92 3.28-2.6 1.24-6.4 1.24-2.96 0-5.84-0.76-2.84-0.8-4.84-2.24l2.52-4.96q1.6 1.2 3.68 1.88 2.12 0.64 4.32 0.64 2.44 0 3.84-0.92 1.4-0.96 1.4-2.68 0-3.44-5.24-3.44h-2.96v-4.28l5.76-6.52h-11.92v-5.2h19.6v4.2z"/>
  <path d="m190.08 180.14h-4.56v5.88h-6.32v-5.88h-15.08v-4.36l13.2-17.76h6.8l-12.24 16.84h7.52v-16.84h6.12v16.84h4.56z"/>
  <path d="m201.54 168.54q5.92 0 8.72 2.36 2.84 2.36 2.84 6.32 0 2.56-1.28 4.68-1.28 2.08-3.92 3.36-2.6 1.24-6.44 1.24-2.96 0-5.84-0.76-2.84-0.8-4.84-2.24l2.56-4.96q1.6 1.2 3.68 1.88 2.08 0.64 4.28 0.64 2.44 0 3.84-0.96t1.4-2.68q0-1.8-1.48-2.72-1.44-0.92-5.04-0.92h-7.16l1.44-15.76h17.08v5.2h-11.68l-0.44 5.32z"/>
 </g>
 <metadata>
  <rdf:RDF>
   <cc:Work rdf:about="">
    <dc:title>logo 1</dc:title>
   </cc:Work>
  </rdf:RDF>
 </metadata>
</svg>
