<?xml version="1.0" encoding="UTF-8"?>
<svg width="310px" height="230px" version="1.1" viewBox="0 0 310 230" xmlns="http://www.w3.org/2000/svg" xmlns:cc="http://creativecommons.org/ns#" xmlns:dc="http://purl.org/dc/elements/1.1/" xmlns:rdf="http://www.w3.org/1999/02/22-rdf-syntax-ns#">
 <!-- Generator: Sketch 53.2 (72643) - https://sketchapp.com -->
 <title>logo 4</title>
 <desc>Created with Sketch.</desc>
 <rect width="310" height="230" fill="#111415"/>
 <g id="logo-hover">
  <path d="m167.79 167.53c-2.3956-0.85652-3.7449-2.2447-4.8584-4.9982-0.60749-1.5023-0.61839-1.7453-0.70036-15.609l-0.0833-14.083h2.5008l5e-3 12.847c5e-3 13.979 0.14734 15.651 1.5048 17.702 2.0516 3.1001 6.4636 3.5277 8.9866 0.87099 2.0061-2.1124 1.9918-1.9967 2.1444-17.405l0.1374-13.877 2.3358-0.169v13.192c0 14.003-0.0746 14.994-1.3222 17.566-1.7526 3.6131-6.5927 5.4144-10.65 3.9636zm61.262 0.0729c-1.5412-0.33519-3.3988-1.084-3.3988-1.3702 0-0.30497 0.65956-1.5172 0.82548-1.5172 0.10321 0 0.91804 0.25662 1.8107 0.57028 5.492 1.9296 10.311-1.058 10.323-6.4007 8e-3 -3.4228-1.6581-5.8293-6.302-9.1019-7.8116-5.505-8.222-12.969-0.89935-16.357 2.4554-1.1361 8.806-0.70865 8.806 0.59276 0 1.0769-0.93381 1.8005-1.7661 1.3684-4.8451-2.5154-10.616 1.4371-9.5255 6.5236 0.55753 2.5996 1.365 3.5472 5.7102 6.7015 4.8666 3.5328 6.5312 6.0961 6.5312 10.058 0 6.4076-5.4044 10.392-12.115 8.9329zm-146.54-1.1699c-0.14731-0.56677-1.4413-5.544-2.8754-11.061-6.6459-25.563-6.044-22.533-4.4761-22.533h1.1953l1.5934 6.1142c3.1264 11.997 5.0126 19.619 5.5048 22.245 0.55102 2.9399 0.78645 3.1559 1.0699 0.98132 0.31436-2.4116 1.385-6.9642 4.3314-18.417l2.81-10.923h1.18c1.4732 0 1.702-1.4511-1.9806 12.565-1.7383 6.6161-3.746 14.286-4.4614 17.044l-1.3007 5.015h-1.1613c-1.1112 0-1.1729-0.0445-1.4292-1.0305zm16.734-16.282v-17.312h13.465v0.92973c0 1.2128-0.024 1.2174-6.03 1.1702l-4.9613-0.039-2.6e-4 6.8012-2.6e-4 6.8012h10.167v1.9236h-10.167v15.103l11.679 0.1484 0.0448 0.89309 0.0448 0.89308h-14.242zm18.961 0v-17.312h1.0655c1.3136 0 1.3369 0.0291 2.8611 3.5723 0.68266 1.5869 2.6824 6.1623 4.4438 10.167 2.9604 6.7312 5.8347 13.513 6.7874 16.014 0.34926 0.91692 0.38162-0.75509 0.27816-14.376l-0.11708-15.413 2.4054 0.1724 0.0708 17.243 0.0708 17.243h-2.6446l-2.1508-4.8776c-1.183-2.6827-3.5748-8.0927-5.3152-12.022-1.7404-3.9296-3.7336-8.693-4.4293-10.585l-1.265-3.4407 0.0889 15.463 0.0889 15.463h-2.2387zm29.678 0.96178v-16.35h-7.4543l0.0861-0.89308 0.0861-0.89309 16.9-0.1454v1.9315h-7.1447v32.701h-2.4732zm39.021-0.53992v-16.89l0.61829-0.35316c1.036-0.59176 7.6891-0.47452 9.5353 0.16803 7.1568 2.4908 7.3574 13.001 0.31818 16.67-1.1277 0.58774-1.1664 0.64412-0.58948 0.85755 2.7133 1.0037 3.8061 3.0816 5.2355 9.9551 0.44289 2.1296 0.98203 4.4595 1.1981 5.1774l0.39285 1.3053h-1.2165c-1.5041 0-1.4689 0.0771-2.7639-6.0455-1.7144-8.105-3.0095-9.6123-8.2629-9.6163l-1.9923-2e-3v15.663h-2.4732zm7.7802-1.0796c3.0687-0.92353 4.8982-3.3995 5.0793-6.8738 0.28083-5.3898-1.9182-7.6924-7.3636-7.7102l-2.8854-9e-3 -0.1462 14.976h2.0217c1.1119 0 2.5943-0.17233 3.2942-0.38297zm13.72 0.72647 0.0708-17.243 13.328-0.1472v2.1526l-5.2898 0.0238c-2.9094 0.0131-5.3848 0.0256-5.5008 0.0278-0.11605 2e-3 -0.17788 3.0027-0.1374 6.6678l0.0736 6.6638 10.305 0.1496v1.9114h-10.442v15.114h11.816v1.9236h-14.293l0.0708-17.243zm-40.049-24.141c-11.348-1.5859-17.539-10.733-17.557-25.94-0.0239-19.899 13.53-38.078 35.142-47.133 4.0427-1.6937 4.1432-1.5431 0.35889 0.5382-18.687 10.277-31.546 28.872-31.546 45.62 0 16.949 8.2196 26.495 20.213 23.475l1.2209-0.30742v-20.27h-9.0682v-3.0228h12.915v25.295l-0.75569 0.28796c-2.6303 1.0023-8.5378 1.7902-10.923 1.4569zm-94.037-0.74648c0.0764-0.1991 1.2619-4.6199 2.6344-9.8239 1.3725-5.2041 3.951-14.957 5.7299-21.674l3.2344-12.212 1.6128-0.64819c0.88703-0.35651 1.6546-0.60632 1.7058-0.55514 0.1618 0.1618-1.6822 8.3058-3.6715 16.215l-1.918 7.6256h13.072l-2.0334-7.9004c-2.5539-9.9227-4.0059-16.35-3.7467-16.585 0.11007-0.09992 0.77358-0.43036 1.4745-0.73432l1.2743-0.55266 1.4152 5.2607c0.77836 2.8934 3.6178 13.484 6.3099 23.535l4.8947 18.274-1.7863 0.0822c-2.2914 0.10544-1.9264 0.79576-4.1834-7.9139-1.077-4.1563-2.1432-8.2061-2.3692-8.9996l-0.41094-1.4427h-14.71l-0.71043 2.6792c-0.39073 1.4736-1.4803 5.6161-2.4213 9.2056l-1.7108 6.5264h-1.9125c-1.4693 0-1.8803-0.0839-1.7736-0.362zm40.223 0.1788c-0.10076-0.10076-0.1832-12.096-0.1832-26.655v-26.472l3.9845 0.0032 5.3414 12.158c7.6007 17.3 12.364 28.417 13.774 32.145 1.4795 3.9118 1.5445 3.9395 1.3031 0.55474-0.10511-1.4738-0.27665-12.17-0.3812-23.77l-0.19009-21.091h3.9253l-0.0701 26.586-0.0701 26.586-1.8415 0.0809c-1.7735 0.078-1.856 0.0526-2.2357-0.68699-2.835-5.5231-18.068-41.064-19.439-45.353-0.81379-2.5466-0.98927-2.5141-0.74231 0.13737 0.10909 1.1713 0.28027 11.991 0.38038 24.045l0.18203 21.915h-1.7773c-0.9775 0-1.8597-0.0824-1.9605-0.1832zm75.111-26.472v-26.655h20.913l-0.083 1.4427-0.0831 1.4427-16.9 0.14534v20.877h15.663v2.748h-15.663v23.632h18.136v3.0228h-21.984zm29.128 0v-26.655h3.8471v50.288h17.862v3.0228h-21.709zm-131.9-20.786c-1e-3 -0.12974 0.32665-1.5034 0.72845-3.0525l0.73055-2.8167h3.6918l0.44841 1.5981c0.51447 1.8336 0.55025 2.249 0.19367 2.249-0.14009 0-1.1812 0.42793-2.3135 0.95096-2.2986 1.0617-3.4762 1.4243-3.4794 1.0711z" fill="#b9bbbb"/>
  <ellipse transform="matrix(.92496 -.38007 .37296 .92785 0 0)" cx="54.411" cy="100.3" rx="20.065" ry="6.7634" fill="none" stroke="#b8b8b8" stroke-width="2.773" style="paint-order:markers stroke fill"/>
 </g>
 <metadata>
  <rdf:RDF>
   <cc:Work rdf:about="">
    <dc:title>logo 4</dc:title>
   </cc:Work>
  </rdf:RDF>
 </metadata>
</svg>
