<?xml version="1.0" encoding="UTF-8"?>
<svg width="310px" height="230px" version="1.1" viewBox="0 0 310 230" xmlns="http://www.w3.org/2000/svg" xmlns:cc="http://creativecommons.org/ns#" xmlns:dc="http://purl.org/dc/elements/1.1/" xmlns:rdf="http://www.w3.org/1999/02/22-rdf-syntax-ns#">
 <!-- Generator: Sketch 53.2 (72643) - https://sketchapp.com -->
 <title>logo 5</title>
 <desc>Created with Sketch.</desc>
 <g>
  <rect id="Rectangle-Copy" width="310" height="230" fill="#111415"/>
  <path d="m175.06 128.04c-7.1831-0.88358-11.122-6.2741-9.3457-12.789 1.732-6.351 10.64-9.264 17.709-5.7911 3.2526 1.598 5.8833 6.8862 4.813 9.6752-0.0741 0.1931-0.98571 0.21511-8.9072 0.21511-5.5794 0-8.8247 0.0483-8.8247 0.13124 0 4.3596 8.2696 6.1724 13.231 2.9005l1.116-0.73606 0.33998 0.39815c0.18698 0.21897 0.82856 0.93386 1.4257 1.5886l1.0858 1.1905-0.47382 0.40104c-2.6103 2.2093-7.6388 3.3729-12.168 2.8158zm6.5652-12.209 1.5341-0.0841-0.35405-0.7093c-1.905-3.8164-9.5763-3.855-11.6-0.0584-0.23621 0.44317-0.42946 0.84309-0.42946 0.88872 0 0.10522 8.803 0.0752 10.849-0.037zm20.816 12.219c-2.1681-0.20252-4.2611-1.101-5.7563-2.4711l-0.88693-0.81272v2.6079h-5.3036v-23.526h5.3036v7.7013l0.68382-0.6591c4.7641-4.592 13.537-3.2401 16.246 2.5035 3.6327 7.7024-1.8039 15.449-10.286 14.656zm1.6635-4.5411c3.7765-0.6737 5.6362-4.345 4.009-7.9142-1.636-3.5884-8.0016-4.0428-11.46-0.81802l-0.85539 0.79753v2.5214c0 2.9344-2e-3 2.9311 1.5502 4.0382 1.8549 1.3237 4.279 1.817 6.7565 1.3751zm20.387 4.5278c-6.0107-0.69563-9.5546-4.3743-9.5466-9.9098 9e-3 -6.5105 4.4744-10.089 12.334-9.8852 6.6623 0.17278 10.511 3.0789 11.23 8.4792 0.99325 7.4638-5.0621 12.352-14.017 11.316zm3.9825-4.3966c4.4746-0.79768 6.4654-5.2531 3.945-8.8288-2.4447-3.4683-10.201-2.8715-11.876 0.91371-2.1063 4.7616 2.0956 8.9552 7.9306 7.915zm-81.194 4.215c-2.2088-0.50062-4.0763-1.918-4.988-3.7856-0.93574-1.9168-0.9374-1.9317-0.99299-8.9004l-0.0501-6.2895h5.3024l0.0455 5.8135c0.0433 5.5282 0.0595 5.8477 0.32995 6.5114 1.5225 3.7355 7.3907 3.4927 10.184-0.42129l0.61017-0.85509v-11.049h5.3036v18.494h-5.3036v-2.8651l-0.9263 0.92631c-2.1487 2.1487-6.1832 3.1749-9.5142 2.4199zm90.13-0.45854c0-0.0624 1.8379-2.1718 4.0841-4.6876 2.2463-2.5158 4.0862-4.6102 4.0888-4.6543 3e-3 -0.0441-1.8047-2.1062-4.0161-4.5824s-4.0208-4.5532-4.0208-4.6154c0-0.0623 1.3641-0.11323 3.0313-0.11323h3.0312l2.632 3.06c1.7831 2.0732 2.6804 3.0196 2.7822 2.9345 0.0826-0.069 1.2824-1.4439 2.6661-3.0552l2.5158-2.9297 2.9577-5e-3c1.6268-3e-3 2.9578 0.0308 2.9578 0.0743 0 0.0705-6.5631 7.4222-7.7035 8.6292l-0.45447 0.481 4.1427 4.6866c2.2785 2.5776 4.1446 4.7324 4.147 4.7885 3e-3 0.0561-1.3717 0.102-3.0535 0.102h-3.0578l-2.6833-3.1292c-1.4758-1.7211-2.7236-3.1132-2.7727-3.0937-0.0492 0.0195-1.2961 1.4276-2.771 3.1292l-2.6815 3.0937h-2.9109c-1.601 0-2.9109-0.0511-2.9109-0.11346zm-134.08-11.78v-11.769l8.8052 8e-4c11.745 8.5e-4 12.997 0.20483 15.251 2.4817 2.7341 2.7615 0.92799 8.5544-2.7063 8.6801-0.18698 7e-3 0.11899 0.12972 0.67994 0.27387 3.2566 0.83694 4.6844 2.5719 4.6892 5.6981 3e-3 2.4995-0.93346 4.0477-3.1525 5.2074-2.1751 1.1368-1.7913 1.1036-13.334 1.1522l-10.233 0.0431zm19.785 6.9298c1.8388-0.921 1.927-3.5533 0.14784-4.4146-0.99873-0.48347-1.9712-0.54739-8.3397-0.54821l-6.1535-7.9e-4v5.4514l13.531-0.08zm-2.3787-9.3246c1.7984-0.29176 2.5161-0.98729 2.5161-2.4384 0-2.3331-0.85909-2.5813-8.9412-2.5828l-5.5415-8.5e-4v5.1676l5.5415-8.5e-4c3.2294-5.5e-4 5.9102-0.0609 6.4252-0.14439zm11.831 2.3892v-11.763h5.3035v23.526h-5.3035zm130.23-2.4349c-2.1485-0.79913-2.0025-3.7074 0.21612-4.3048 2.2495-0.60573 4.1358 1.4452 3.0607 3.328-0.53806 0.94229-2.1099 1.4109-3.2768 0.97685zm1.6211-0.36905c1.6729-0.42124 1.9684-2.5397 0.46282-3.3183-0.93103-0.48145-2.3633-0.15284-2.856 0.65527-0.91272 1.4969 0.55189 3.1266 2.3932 2.663zm-1.8437-1.7517v-1.2239h1.0879c1.4969 0 2.1028 0.61692 1.3476 1.3721l-0.2842 0.2842 0.2842 0.30251c0.37859 0.40299 0.35896 0.48897-0.11167 0.48897-0.27291 0-0.5025-0.12671-0.73915-0.40796-0.18881-0.22438-0.46962-0.40797-0.62404-0.40797-0.2213 0-0.28076 0.0864-0.28076 0.40797 0 0.3445-0.0529 0.40796-0.33997 0.40796-0.33745 0-0.33997-9e-3 -0.33997-1.2239zm1.8358-0.40797c0-0.14276-0.17347-0.21654-0.57796-0.2458-0.51095-0.037-0.57795-8e-3 -0.57795 0.2458 0 0.25427 0.067 0.28276 0.57795 0.2458 0.40449-0.0292 0.57796-0.10304 0.57796-0.2458z" fill="#b9bbbb" stroke-width=".13599"/>
  <path d="m43.624 129.88v-3.6158l8.7373 0.0464c8.1437 0.0433 8.7923 0.064 9.5477 0.30554 3.1708 1.0137 3.2323 5.4305 0.09029 6.4926-0.8902 0.30091-1.0031 0.30496-9.638 0.34576l-8.7373 0.0413zm29.055 3.0266c1.6667-4.5148-2.1529-9.7575-7.2166-9.9054-0.31443-9e-3 -0.19769-0.072 0.46372-0.24943 6.6787-1.7918 7.3424-9.9022 1.0565-12.91-3.0091-1.4399-3.7133-1.5132-14.553-1.5141l-8.8052-8e-4v-11.831h37.125v36.989h-8.2832zm-29.055-15.597v-3.4077l7.4454 8.5e-4c8.9492 8.5e-4 9.6674 0.0841 10.877 1.254 1.0061 0.9736 1.0387 3.1982 0.0619 4.2306-1.1234 1.1874-1.3906 1.22-10.462 1.2786l-7.9213 0.0511z" fill="#b9bbbb" stroke-width=".13599"/>
 </g>
 <metadata>
  <rdf:RDF>
   <cc:Work rdf:about="">
    <dc:title>logo 5</dc:title>
   </cc:Work>
  </rdf:RDF>
 </metadata>
</svg>
