<?xml version="1.0" encoding="UTF-8"?>
<svg width="310px" height="230px" version="1.1" viewBox="0 0 310 230" xmlns="http://www.w3.org/2000/svg" xmlns:cc="http://creativecommons.org/ns#" xmlns:dc="http://purl.org/dc/elements/1.1/" xmlns:rdf="http://www.w3.org/1999/02/22-rdf-syntax-ns#">
 <title>logo 3</title>
 <desc>Created with Sketch.</desc>
 <rect width="310" height="230" fill="#111415"/>
 <g fill="#b9bbbb">
  <path d="m162.25 90.606-22.963 0.04435c-3.4003 0.66678-8.0812 2.9317-8.1763 7.8208l0.0111 39.86 9.9427-0.0448 0.0443-18.486h18.797v-8.5318l-18.841-0.14485v-8.0314c0.17002-1.8221 1.0067-3.1998 2.8439-3.9104h18.486z"/>
  <path d="m164.58 90.529 11.577 47.342 9.8039 0.11315 9.2824-32.228 9.2781 32.08 9.7 0.03 12.098-47.338h-10.321l-7.1965 32.853-8.9824-32.745-8.861-0.0044-8.335 31.81-8.0308-31.915z"/>
  <path d="m259.8 90.425 10.221 9e-3 -15.014 47.659-11.994-5e-3 -14.597-47.759h9.5864l11.16 37.538z"/>
 </g>
 <ellipse cx="76.906" cy="114.56" rx="37.051" ry="37.08" fill="#e5e6e6" opacity=".62" style="paint-order:markers stroke fill"/>
 <g fill="#5d5f60">
  <path d="m47.622 91.765a37.051 37.08 0 0 0-7.8672 22.703 37.051 37.08 0 0 0 37.051 37.08 37.051 37.08 0 0 0 21.184-6.75 53.377 53.419 0 0 1-50.367-53.033z" fill-opacity=".25" opacity=".62" style="paint-order:markers stroke fill"/>
  <path d="m111.12 100.4a37.062 37.017 73.215 0 0-15.706-18.165 37.062 37.017 73.215 0 0-50.567 13.547 37.062 37.017 73.215 0 0-4.7395 21.721 53.393 53.328 73.213 0 1 71.012-17.103z" fill-opacity=".25" style="paint-order:markers stroke fill"/>
  <path d="m106.14 137.2a37.144 37.048 3.5427 0 0 7.8834-22.683 37.144 37.048 3.5427 0 0-37.15-37.055 37.144 37.048 3.5427 0 0-21.236 6.7409 53.512 53.373 3.5434 0 1 50.502 52.997z" fill-opacity=".25098" style="paint-order:markers stroke fill"/>
  <path d="m42.477 128.43a37.048 37.144 33.543 0 0 15.702 18.169 37.048 37.144 33.543 0 0 50.665-13.645 37.048 37.144 33.543 0 0 4.7801-21.761 53.373 53.512 33.543 0 1-71.147 17.238z" fill-opacity=".25098" style="paint-order:markers stroke fill"/>
  <path d="m81.806 77.954a37.144 37.048 63.543 0 0-23.585 4.5141 37.144 37.048 63.543 0 0-13.515 50.7 37.144 37.048 63.543 0 0 16.456 15.02 53.512 53.373 63.543 0 1 20.645-70.234z" fill-opacity=".25098" style="paint-order:markers stroke fill"/>
  <path d="m72.355 151.19a36.632 37.058 1.6616 0 0 23.315-4.5384 36.632 37.058 1.6616 0 0 13.426-50.627 36.632 37.058 1.6616 0 0-16.242-14.971 52.774 53.388 1.6617 0 1-20.498 70.136z" fill-opacity=".25" style="paint-order:markers stroke fill"/>
 </g>
 <path d="m65.062 110.52c3.9853 6.9323 9.0855 11.679 15.445 15.445 3.0643-6.2673 4.3723-13.966 4.7532-20.498-7.3908-0.46151-14.807 1.5284-20.199 5.0533z" fill="#b9bbbb"/>
 <metadata>
  <rdf:RDF>
   <cc:Work rdf:about="">
    <dc:title>logo 3</dc:title>
   </cc:Work>
  </rdf:RDF>
 </metadata>
</svg>
