<?xml version="1.0" encoding="UTF-8"?>
<svg width="310px" height="230px" version="1.1" viewBox="0 0 310 230" xmlns="http://www.w3.org/2000/svg" xmlns:cc="http://creativecommons.org/ns#" xmlns:dc="http://purl.org/dc/elements/1.1/" xmlns:rdf="http://www.w3.org/1999/02/22-rdf-syntax-ns#">
 <title>logo 2</title>
 <desc>Created with Sketch.</desc>
 <rect x="-.69289" y="-.2772" width="310" height="230" fill="#111415"/>
 <g transform="scale(.82779 1.208)" fill="#b9bbbb" stroke-width=".6214" aria-label="Genesis Capital Ventures">
  <path d="m84.93 89.765q-0.79539 0.4474-2.9827 0.99423-2.1873 0.52197-4.8717 0.52197-5.2694 0-7.8296-2.1873-2.5353-2.2122-2.5353-6.9348 0-4.0764 2.8833-6.214 2.9081-2.1625 7.5562-2.1625 3.8526 0 6.7856 1.1434v3.107q-0.64625-0.37284-2.2867-0.82024-1.6156-0.4474-3.2064-0.4474-3.5792 0-5.2446 1.3671-1.6653 1.3422-1.6653 4.0266 0 6.1642 5.1949 6.1642 1.5908 0 3.5792-0.72082v-5.518h4.6232z"/>
  <path d="m105.14 85.39h-12.478q0.07457 1.8393 1.5162 2.6596 1.4416 0.79539 4.3001 0.79539 1.7151 0 3.4798-0.4474 1.7896-0.4474 2.2867-0.74567v2.4856q-0.77053 0.37284-2.8336 0.77053-2.0382 0.37284-4.6977 0.37284-4.5735 0-6.5619-1.7399-1.9636-1.7399-1.9636-5.2446 0-2.933 2.4359-4.6232 2.4607-1.715 6.0897-1.715 3.8278 0 6.1145 1.6653 2.3116 1.6653 2.3116 4.6729zm-4.3746-2.1376q-0.0497-1.3422-1.1185-2.1376-1.0688-0.79539-2.9081-0.79539-1.7648 0-2.9081 0.82024-1.1434 0.79538-1.1682 2.1127z"/>
  <path d="m125.1 90.983h-4.5735v-7.3325q0-1.4665-0.8451-2.2122-0.84509-0.77053-2.759-0.77053-1.1931 0-2.3364 0.24856-1.1434 0.2237-1.6405 0.42255v9.6441h-4.5735v-11.732q1.1931-0.39769 3.6787-0.8451 2.4856-0.4474 5.0209-0.4474 3.9272 0 5.9654 1.0937 2.063 1.0688 2.063 3.1318z"/>
  <path d="m145.34 85.39h-12.478q0.0746 1.8393 1.5162 2.6596 1.4416 0.79539 4.3001 0.79539 1.715 0 3.4798-0.4474 1.7896-0.4474 2.2867-0.74567v2.4856q-0.77053 0.37284-2.8336 0.77053-2.0382 0.37284-4.6977 0.37284-4.5735 0-6.5619-1.7399-1.9636-1.7399-1.9636-5.2446 0-2.933 2.4359-4.6232 2.4607-1.715 6.0897-1.715 3.8278 0 6.1145 1.6653 2.3116 1.6653 2.3116 4.6729zm-4.3746-2.1376q-0.0497-1.3422-1.1185-2.1376-1.0688-0.79539-2.9081-0.79539-1.7648 0-2.9081 0.82024-1.1434 0.79538-1.1682 2.1127z"/>
  <path d="m163.18 86.782q0 2.063-1.9139 3.281t-5.8411 1.2179q-1.7896 0-3.5792-0.24856-1.7648-0.2237-2.759-0.47226-0.96938-0.24856-1.2179-0.42255v-2.6099q0.64625 0.39769 2.4856 0.8451 1.8393 0.4474 3.5295 0.4474 1.5411 0 2.6099-0.2237 1.0936-0.24856 1.5411-0.57168 0.4474-0.32312 0.4474-0.69596 0-0.4474-1.0937-0.77053-1.0936-0.32312-2.6596-0.57168-1.5411-0.27341-3.107-0.64625-1.5659-0.39769-2.6596-1.1682-1.0937-0.79538-1.0937-1.9388 0-2.063 2.1376-3.1567 2.1376-1.1185 5.4434-1.1185 3.4301 0 7.1336 1.1434v2.585q-0.64625-0.39769-2.3862-0.79538-1.715-0.39769-3.281-0.39769-4.4492 0-4.4492 1.2676 0 0.42255 0.69596 0.69596 0.69596 0.24856 2.0879 0.52197 0.42254 0.09942 1.3174 0.27341 0.89481 0.14913 1.5162 0.27341 0.62139 0.12428 1.4665 0.34798 0.8451 0.19885 1.4168 0.47226 0.57168 0.24856 1.1185 0.59654t0.82024 0.82024q0.27342 0.4474 0.27342 1.0191z"/>
  <path d="m170.98 76.094h-4.6232v-2.7838h4.6232zm-0.0249 14.889h-4.5735v-12.726h4.5735z"/>
  <path d="m189.4 86.782q0 2.063-1.9139 3.281-1.9139 1.2179-5.8411 1.2179-1.7896 0-3.5792-0.24856-1.7648-0.2237-2.759-0.47226-0.96938-0.24856-1.2179-0.42255v-2.6099q0.64625 0.39769 2.4856 0.8451 1.8393 0.4474 3.5295 0.4474 1.5411 0 2.6099-0.2237 1.0936-0.24856 1.5411-0.57168 0.4474-0.32312 0.4474-0.69596 0-0.4474-1.0936-0.77053-1.0937-0.32312-2.6596-0.57168-1.5411-0.27341-3.107-0.64625-1.5659-0.39769-2.6596-1.1682-1.0936-0.79538-1.0936-1.9388 0-2.063 2.1376-3.1567 2.1376-1.1185 5.4434-1.1185 3.4301 0 7.1336 1.1434v2.585q-0.64625-0.39769-2.3862-0.79538-1.715-0.39769-3.281-0.39769-4.4492 0-4.4492 1.2676 0 0.42255 0.69596 0.69596 0.69596 0.24856 2.0879 0.52197 0.42255 0.09942 1.3174 0.27341 0.89481 0.14913 1.5162 0.27341 0.6214 0.12428 1.4665 0.34798 0.8451 0.19885 1.4168 0.47226 0.57169 0.24856 1.1185 0.59654 0.54683 0.34798 0.82025 0.82024 0.27341 0.4474 0.27341 1.0191z"/>
  <path d="m219.11 90.138q-2.9081 1.1434-6.214 1.1434-4.7723 0-7.2828-2.2867-2.4856-2.2867-2.4856-6.8353 0-2.1127 0.82024-3.7532 0.82024-1.6653 2.2122-2.6347 1.3919-0.99423 3.107-1.4913t3.629-0.49712q1.5411 0 2.9827 0.27341 1.4416 0.24856 2.0382 0.47226 0.6214 0.2237 0.99424 0.39769v3.0821q-0.69597-0.42255-1.9636-0.82024-1.2428-0.42255-2.4856-0.42255-3.0573 0-4.7972 1.3919-1.715 1.3671-1.715 4.0018 0 2.9827 1.6156 4.5735 1.6405 1.5659 4.8966 1.5659 1.2925 0 2.6347-0.4474 1.3422-0.4474 2.0133-0.8451z"/>
  <path d="m238.54 90.386q-0.91966 0.32313-3.3804 0.59654-2.4607 0.29827-5.692 0.29827-4.0266 0-6.0897-0.91966-2.0382-0.94452-2.0382-3.1567 0-1.4168 1.1682-2.411 1.1931-0.99423 2.9827-1.4168 1.8145-0.42255 4.0764-0.42255h4.5486v-0.59654q0-1.9885-5.3937-1.9885-2.2122 0-6.1642 1.2179v-2.4856q0.82024-0.32312 3.0076-0.72082 2.1873-0.42255 4.474-0.42255 4.6729 0 6.5868 1.1931 1.9139 1.1682 1.9139 3.5295zm-4.4243-1.9636v-3.3804h-3.0076q-2.6844 0-4.0018 0.49712-1.2925 0.47226-1.2925 1.5411 0 0.8451 1.0688 1.3422 1.0688 0.47226 2.7838 0.47226 1.4416 0 2.7341-0.14913 1.2925-0.17399 1.715-0.32313z"/>
  <path d="m260.08 84.296q0 1.8642-0.64625 3.2561-0.6214 1.3919-1.7399 2.1873-1.1185 0.77053-2.4607 1.1682-1.3422 0.37284-2.933 0.37284-1.7896 0-3.3804-0.42255-1.5659-0.42255-2.0382-0.79539v6.3134h-4.5735v-17.126q0.91966-0.34798 3.4798-0.82024 2.5602-0.47226 5.1452-0.47226 9.1469 0 9.1469 6.3382zm-4.7226 0q0-1.8393-1.1682-2.759-1.1434-0.91966-3.281-0.91966-2.4856 0-4.0266 0.77053v6.4377q0.47226 0.27341 1.6902 0.54683 1.2179 0.27341 2.3364 0.27341 2.1873 0 3.3058-1.0191 1.1434-1.0439 1.1434-3.3307z"/>
  <path d="m267.98 76.094h-4.6232v-2.7838h4.6232zm-0.0249 14.889h-4.5735v-12.726h4.5735z"/>
  <path d="m281.25 90.958q-1.8393 0.27341-4.1509 0.27341-5.3191 0-5.3191-3.7532v-12.204h4.5486v2.9827h4.474v2.6596h-4.474v6.0151q0 1.6653 2.4856 1.6653 0.74568 0 2.4359-0.32313z"/>
  <path d="m300.63 90.386q-0.91967 0.32313-3.3804 0.59654-2.4607 0.29827-5.692 0.29827-4.0266 0-6.0897-0.91966-2.0382-0.94452-2.0382-3.1567 0-1.4168 1.1682-2.411 1.1931-0.99423 2.9827-1.4168 1.8145-0.42255 4.0764-0.42255h4.5486v-0.59654q0-1.9885-5.3937-1.9885-2.2122 0-6.1642 1.2179v-2.4856q0.82024-0.32312 3.0076-0.72082 2.1873-0.42255 4.474-0.42255 4.6729 0 6.5868 1.1931 1.9139 1.1682 1.9139 3.5295zm-4.4243-1.9636v-3.3804h-3.0076q-2.6844 0-4.0018 0.49712-1.2925 0.47226-1.2925 1.5411 0 0.8451 1.0688 1.3422 1.0688 0.47226 2.7838 0.47226 1.4416 0 2.7341-0.14913 1.2925-0.17399 1.715-0.32313z"/>
  <path d="m308.97 90.983h-4.5735v-17.971h4.5735z"/>
  <path d="m86.496 100.18-7.4567 16.902h-5.9902l-7.5313-16.902h5.0209l5.5926 14.118 5.518-14.118z"/>
  <path d="m103.25 111.49h-12.478q0.07457 1.8393 1.5162 2.6596 1.4416 0.79539 4.3001 0.79539 1.715 0 3.4798-0.44741 1.7896-0.4474 2.2867-0.74567v2.4856q-0.77053 0.37283-2.8336 0.77053-2.0382 0.37283-4.6977 0.37283-4.5735 0-6.5619-1.7399-1.9636-1.7399-1.9636-5.2446 0-2.933 2.4359-4.6232 2.4607-1.715 6.0897-1.715 3.8278 0 6.1145 1.6653 2.3116 1.6653 2.3116 4.6729zm-4.3746-2.1376q-0.04971-1.3422-1.1185-2.1376-1.0688-0.79538-2.9081-0.79538-1.7648 0-2.9081 0.82024-1.1434 0.79538-1.1682 2.1127z"/>
  <path d="m123.2 117.08h-4.5735v-7.3325q0-1.4665-0.8451-2.2122-0.8451-0.77053-2.759-0.77053-1.1931 0-2.3364 0.24856-1.1434 0.2237-1.6405 0.42254v9.644h-4.5735v-11.732q1.1931-0.3977 3.6787-0.8451t5.0209-0.4474q3.9272 0 5.9654 1.0936 2.063 1.0688 2.063 3.1318z"/>
  <path d="m136.48 117.06q-1.8393 0.27341-4.1509 0.27341-5.3191 0-5.3191-3.7532v-12.204h4.5486v2.9827h4.474v2.6596h-4.474v6.0151q0 1.6653 2.4856 1.6653 0.74567 0 2.4359-0.32313z"/>
  <path d="m155.92 116.29q-0.99424 0.32312-3.5544 0.72082-2.5353 0.37283-5.0209 0.37283-3.9272 0-5.9405-1.1185-1.9885-1.1434-1.9885-3.107v-8.799h4.5735v7.3325q0 3.0076 3.5295 3.0076 2.1127 0 3.8526-0.52197v-9.818h4.5486z"/>
  <path d="m170.62 106.84q-0.0994-0.0249-0.37284-0.0497-0.27341-0.0249-0.64625-0.0497-0.37284-0.0497-0.59654-0.0746-1.5162 0-4.7475 0.64625v9.7683h-4.5735v-11.856q0.34798-0.12428 1.4914-0.37284 1.1434-0.24856 3.0573-0.52197t3.3555-0.27341q2.3862 0 3.0324 0.17399z"/>
  <path d="m189.61 111.49h-12.478q0.0746 1.8393 1.5162 2.6596 1.4416 0.79539 4.3 0.79539 1.715 0 3.4798-0.44741 1.7896-0.4474 2.2867-0.74567v2.4856q-0.77053 0.37283-2.8336 0.77053-2.0382 0.37283-4.6978 0.37283-4.5735 0-6.5619-1.7399-1.9636-1.7399-1.9636-5.2446 0-2.933 2.4359-4.6232 2.4607-1.715 6.0897-1.715 3.8278 0 6.1145 1.6653 2.3116 1.6653 2.3116 4.6729zm-4.3746-2.1376q-0.0497-1.3422-1.1185-2.1376-1.0688-0.79538-2.9081-0.79538-1.7648 0-2.9081 0.82024-1.1434 0.79538-1.1682 2.1127z"/>
  <path d="m207.46 112.88q0 2.063-1.9139 3.281t-5.8411 1.2179q-1.7896 0-3.5792-0.24855-1.7648-0.22371-2.759-0.47226-0.96938-0.24856-1.2179-0.42255v-2.6099q0.64625 0.39769 2.4856 0.8451 1.8393 0.4474 3.5295 0.4474 1.5411 0 2.6099-0.2237 1.0936-0.24856 1.5411-0.57169 0.4474-0.32312 0.4474-0.69596 0-0.4474-1.0936-0.77053-1.0937-0.32312-2.6596-0.57168-1.5411-0.27342-3.107-0.64625-1.5659-0.39769-2.6596-1.1682-1.0937-0.79539-1.0937-1.9388 0-2.063 2.1376-3.1567 2.1376-1.1185 5.4434-1.1185 3.4301 0 7.1336 1.1434v2.585q-0.64625-0.3977-2.3862-0.79539-1.715-0.39769-3.281-0.39769-4.4492 0-4.4492 1.2676 0 0.42255 0.69596 0.69596 0.69596 0.24856 2.0879 0.52198 0.42255 0.0994 1.3174 0.27341 0.89481 0.14914 1.5162 0.27341 0.62139 0.12428 1.4665 0.34799 0.8451 0.19884 1.4168 0.47226 0.57168 0.24855 1.1185 0.59654 0.54683 0.34798 0.82024 0.82024 0.27342 0.4474 0.27342 1.0191z"/>
 </g>
 <metadata>
  <rdf:RDF>
   <cc:Work rdf:about="">
    <dc:title>logo 2</dc:title>
   </cc:Work>
  </rdf:RDF>
 </metadata>
</svg>
